REM MD5 54a34d841e6ffd80fd95a37b472702a7
FILE "Colin McRae Rally (Europe) (En,Fr,De,Es) (Rev 3).bin" BINARY
  TRACK 01 MODE2/2352
    INDEX 01 00:00:00
  TRACK 02 AUDIO
    INDEX 00 31:28:01
    INDEX 01 31:30:01
  TRACK 03 AUDIO
    INDEX 00 36:44:01
    INDEX 01 36:46:01
  TRACK 04 AUDIO
    INDEX 00 39:43:26
    INDEX 01 39:45:26
REM LEADOUT 44:59:24
